<mxfile host="app.diagrams.net" modified="2023-07-01T15:47:11.217Z" agent="Mozilla/5.0 (Windows NT 10.0; Win64; x64) AppleWebKit/537.36 (KHTML, like Gecko) Chrome/114.0.0.0 Safari/537.36" version="21.5.0" etag="rJD-P5MKT9Od72ip-MFY" type="github">
  <diagram name="Page-1" id="nU6fo6rZCm_6ugeF99aE">
    <mxGraphModel>
      <root>
        <mxCell id="0" />
        <mxCell id="1" parent="0" />
      </root>
    </mxGraphModel>
  </diagram>
</mxfile>
